<svg xmlns="http://www.w3.org/2000/svg" viewBox="0 0 481 480"><defs><style>.cls-1{fill:#4c5660;}.cls-2{fill:#fff;}</style></defs><title>logo.svg</title><g id="Layer_2" data-name="Layer 2"><g id="Layer_1-2" data-name="Layer 1"><path class="cls-1" d="M153,377.3v77.8c0,13.3-10.1,24.8-23.4,24.8H24.6C11.3,479.9,0,468.3,0,455.1v-105c0-13.3,11.3-23.2,24.6-23.2h77.7A152.69,152.69,0,0,0,153,377.3Z"/><path class="cls-1" d="M153,23v77.8c-21,13-37.6,31.2-50.7,52.2H24.6C11.3,153,0,141.3,0,128V23C0,9.7,11.3,0,24.6,0h105C142.9,0,153,9.8,153,23Z"/><path class="cls-1" d="M77.1,240.5a163.52,163.52,0,0,0,19,76.5H24.6C11.3,317,0,304.8,0,291.6v-105C0,173.3,11.3,164,24.6,164H96.1C84,186,77.1,212.9,77.1,240.5Z"/><path class="cls-1" d="M317,383.9v71.3c0,13.3-9.7,24.8-23,24.8H189c-13.3,0-25-11.6-25-24.8V383.9a164.58,164.58,0,0,0,76.5,18.8C268.1,402.7,295,395.9,317,383.9Z"/><path class="cls-1" d="M317,23V94.2c-22-12-48.9-18.8-76.5-18.8A164.58,164.58,0,0,0,164,94.2V23c0-13.3,11.8-23,25-23H294C307.3,0,317,9.8,317,23Z"/><path class="cls-1" d="M481,350.2v105c0,13.3-9.3,24.8-22.6,24.8h-105c-13.3,0-25.4-11.6-25.4-24.8V377.4c21-13,39.6-29.3,52.7-50.3h77.7C471.7,327,481,336.9,481,350.2Z"/><path class="cls-1" d="M481,23V128c0,13.3-9.3,25-22.6,25H380.7c-13-21-31.7-39.1-52.7-52.2V23c0-13.3,12.2-23,25.4-23h105C471.7,0,481,9.8,481,23Z"/><path class="cls-1" d="M481,186.6v105c0,13.3-9.3,25.4-22.6,25.4H386.9a162.34,162.34,0,0,0,19-76.5c0-27.6-6.9-54.5-19.1-76.5h71.6C471.7,164,481,173.3,481,186.6Z"/><path class="cls-1" d="M388.8,239.1a144.87,144.87,0,0,1-17.1,68.5c-1.7,3.2-3.6,6.4-5.5,9.5a147.12,147.12,0,0,1-46,45.9c-3.3,2.1-6.7,4.1-10.2,5.9a148.25,148.25,0,0,1-137.1,0c-3.5-1.8-6.9-3.8-10.2-5.9a148.17,148.17,0,0,1-46-45.9c-2-3.1-3.8-6.3-5.5-9.5a146,146,0,0,1,0-137.1c1.7-3.2,3.6-6.4,5.5-9.5a147.12,147.12,0,0,1,46-45.9c3.3-2.1,6.7-4.1,10.2-5.9a148.25,148.25,0,0,1,137.1,0c3.5,1.8,6.9,3.8,10.2,5.9a148.17,148.17,0,0,1,46,45.9c2,3.1,3.8,6.3,5.5,9.5A144.4,144.4,0,0,1,388.8,239.1Z"/><path class="cls-2" d="M201.5,342.4h0a10.14,10.14,0,0,1-10.1-10.1V147.8a10.14,10.14,0,0,1,10.1-10.1h0a10.14,10.14,0,0,1,10.1,10.1V332.3A10.14,10.14,0,0,1,201.5,342.4Z"/><path class="cls-2" d="M283.5,342.4h0a10.14,10.14,0,0,1-10.1-10.1V147.8a10.14,10.14,0,0,1,10.1-10.1h0a10.14,10.14,0,0,1,10.1,10.1V332.3A10.14,10.14,0,0,1,283.5,342.4Z"/><path class="cls-2" d="M342.8,281.5h0a10.14,10.14,0,0,1-10.1,10.1H148.3a10.14,10.14,0,0,1-10.1-10.1h0a10.14,10.14,0,0,1,10.1-10.1H332.8A10.12,10.12,0,0,1,342.8,281.5Z"/><path class="cls-2" d="M342.8,199.5h0a10.14,10.14,0,0,1-10.1,10.1H148.3a10.14,10.14,0,0,1-10.1-10.1h0a10.14,10.14,0,0,1,10.1-10.1H332.8A10.12,10.12,0,0,1,342.8,199.5Z"/></g></g></svg>