<svg xmlns="http://www.w3.org/2000/svg" viewBox="0 0 626 489.94"><title>replyarrow</title><g id="Layer_2" data-name="Layer 2"><g id="Layer_1-2" data-name="Layer 1"><path d="M626,489.94c-2.46-14.07-4-28.39-7.57-42.15-8.08-30.8-23.6-57.74-45.13-81.23A197.4,197.4,0,0,0,505,318.1c-20-8.59-41-14-62.78-15.17-14.63-.78-29.3-.91-44-.93-59.5-.1-119,0-178.49-.17-5.28,0-6.29,1.59-6.27,6.48.2,36.33.1,72.66.1,109q0,3.13,0,6.27l-1.23.49c-4.81-4.74-9.65-9.45-14.43-14.23Q116.84,328.69,35.77,247.55,17.93,229.7,0,211.94q0-.5,0-1a12.16,12.16,0,0,0,2.88-1.61q30.75-30.65,61.41-61.39,31.56-31.6,63.09-63.23,34.92-35,69.87-69.87c5-5,10.08-9.9,15.12-14.84l1.31.55V93.38h7.24c67.15,0,134.31-.16,201.46.14a235.68,235.68,0,0,1,38.29,3.09,193.6,193.6,0,0,1,98.8,47.8c30.46,27.39,50.78,60.92,60.44,100.69,2.85,11.74,4.1,23.88,6.09,35.83Z"/></g></g></svg>